<svg xmlns="http://www.w3.org/2000/svg" xmlns:xlink="http://www.w3.org/1999/xlink" width="70" zoomAndPan="magnify" viewBox="0 0 52.5 52.499999" height="70" preserveAspectRatio="xMidYMid meet" version="1.0"><defs><clipPath id="ad14571ccc"><path d="M 5.125 6.183594 L 47.125 6.183594 L 47.125 46.683594 L 5.125 46.683594 Z M 5.125 6.183594 " clip-rule="nonzero"/></clipPath></defs><g clip-path="url(#ad14571ccc)"><path fill="#000000" d="M 38.078125 10.660156 C 38.132812 10.867188 38.011719 11.082031 37.804688 11.136719 L 36.679688 11.441406 C 36.472656 11.496094 36.261719 11.375 36.207031 11.164062 L 35.738281 9.375 C 35.683594 9.164062 35.804688 8.949219 36.011719 8.894531 L 37.136719 8.589844 C 37.34375 8.535156 37.554688 8.660156 37.609375 8.867188 Z M 44.6875 35.882812 C 44.742188 36.089844 44.617188 36.304688 44.414062 36.359375 L 43.289062 36.664062 C 43.082031 36.71875 42.871094 36.597656 42.816406 36.386719 L 42.347656 34.597656 C 42.292969 34.386719 42.414062 34.171875 42.621094 34.117188 L 43.746094 33.8125 C 43.953125 33.757812 44.164062 33.882812 44.21875 34.089844 Z M 40.660156 36.96875 C 40.71875 37.175781 40.59375 37.390625 40.386719 37.449219 L 39.261719 37.75 C 39.058594 37.808594 38.84375 37.683594 38.789062 37.472656 L 38.320312 35.683594 C 38.265625 35.472656 38.390625 35.257812 38.59375 35.203125 L 39.71875 34.898438 C 39.925781 34.84375 40.136719 34.96875 40.191406 35.179688 Z M 36.636719 38.054688 C 36.691406 38.265625 36.570312 38.480469 36.363281 38.535156 L 35.238281 38.839844 C 35.03125 38.894531 34.820312 38.769531 34.765625 38.558594 L 34.296875 36.769531 C 34.242188 36.5625 34.363281 36.347656 34.570312 36.289062 L 35.695312 35.988281 C 35.902344 35.929688 36.113281 36.054688 36.167969 36.265625 Z M 32.613281 39.140625 C 32.667969 39.351562 32.542969 39.566406 32.339844 39.621094 L 31.214844 39.925781 C 31.007812 39.980469 30.796875 39.855469 30.742188 39.648438 L 30.273438 37.859375 C 30.214844 37.648438 30.339844 37.433594 30.546875 37.378906 L 31.671875 37.074219 C 31.875 37.019531 32.089844 37.140625 32.144531 37.351562 Z M 28.585938 40.226562 C 28.640625 40.4375 28.519531 40.652344 28.3125 40.707031 L 27.1875 41.011719 C 26.980469 41.066406 26.769531 40.945312 26.714844 40.734375 L 26.246094 38.945312 C 26.191406 38.734375 26.316406 38.519531 26.519531 38.464844 L 27.644531 38.160156 C 27.851562 38.105469 28.0625 38.230469 28.117188 38.4375 Z M 24.5625 41.316406 C 24.617188 41.523438 24.496094 41.738281 24.289062 41.796875 L 23.164062 42.097656 C 22.957031 42.15625 22.746094 42.03125 22.691406 41.820312 L 22.222656 40.03125 C 22.167969 39.820312 22.289062 39.605469 22.496094 39.550781 L 23.621094 39.246094 C 23.828125 39.191406 24.039062 39.316406 24.09375 39.527344 Z M 20.539062 42.402344 C 20.59375 42.613281 20.46875 42.828125 20.261719 42.882812 L 19.140625 43.1875 C 18.933594 43.242188 18.722656 43.117188 18.667969 42.90625 L 18.199219 41.117188 C 18.140625 40.910156 18.265625 40.695312 18.472656 40.636719 L 19.597656 40.335938 C 19.800781 40.277344 20.015625 40.402344 20.070312 40.613281 Z M 16.511719 43.488281 C 16.566406 43.699219 16.445312 43.914062 16.238281 43.96875 L 15.113281 44.273438 C 14.90625 44.328125 14.695312 44.203125 14.640625 43.996094 L 14.171875 42.207031 C 14.117188 41.996094 14.242188 41.78125 14.445312 41.726562 L 15.570312 41.421875 C 15.777344 41.367188 15.988281 41.492188 16.042969 41.699219 Z M 7.5625 16.984375 C 7.507812 16.773438 7.632812 16.558594 7.839844 16.503906 L 8.964844 16.199219 C 9.167969 16.144531 9.382812 16.269531 9.4375 16.476562 L 9.90625 18.265625 C 9.960938 18.476562 9.835938 18.691406 9.628906 18.746094 L 8.507812 19.050781 C 8.300781 19.105469 8.085938 18.980469 8.03125 18.773438 Z M 11.589844 15.894531 C 11.535156 15.6875 11.65625 15.472656 11.863281 15.414062 L 12.988281 15.113281 C 13.195312 15.054688 13.40625 15.179688 13.460938 15.390625 L 13.929688 17.179688 C 13.984375 17.390625 13.863281 17.605469 13.65625 17.660156 L 12.53125 17.964844 C 12.324219 18.019531 12.113281 17.894531 12.058594 17.683594 Z M 15.613281 14.808594 C 15.558594 14.597656 15.679688 14.382812 15.886719 14.328125 L 17.011719 14.023438 C 17.21875 13.96875 17.429688 14.09375 17.484375 14.304688 L 17.953125 16.09375 C 18.007812 16.300781 17.886719 16.519531 17.679688 16.574219 L 16.554688 16.875 C 16.347656 16.933594 16.136719 16.808594 16.082031 16.597656 Z M 19.636719 13.722656 C 19.582031 13.511719 19.707031 13.296875 19.914062 13.242188 L 21.039062 12.9375 C 21.242188 12.882812 21.457031 13.007812 21.511719 13.214844 L 21.980469 15.007812 C 22.035156 15.214844 21.910156 15.429688 21.703125 15.484375 L 20.582031 15.789062 C 20.375 15.84375 20.164062 15.722656 20.109375 15.511719 Z M 23.664062 12.636719 C 23.609375 12.425781 23.730469 12.210938 23.9375 12.15625 L 25.0625 11.851562 C 25.269531 11.796875 25.480469 11.917969 25.535156 12.128906 L 26.003906 13.917969 C 26.058594 14.128906 25.9375 14.34375 25.730469 14.398438 L 24.605469 14.703125 C 24.398438 14.757812 24.1875 14.632812 24.132812 14.425781 Z M 27.6875 11.546875 C 27.632812 11.339844 27.757812 11.125 27.960938 11.066406 L 29.085938 10.765625 C 29.292969 10.707031 29.503906 10.832031 29.558594 11.042969 L 30.027344 12.832031 C 30.082031 13.042969 29.960938 13.257812 29.753906 13.3125 L 28.628906 13.617188 C 28.421875 13.671875 28.210938 13.546875 28.15625 13.335938 Z M 37.445312 12.457031 C 37.996094 12.308594 38.566406 12.644531 38.710938 13.207031 L 43.519531 31.5625 C 43.667969 32.125 43.339844 32.699219 42.785156 32.847656 L 14.902344 40.378906 C 14.347656 40.527344 13.78125 40.195312 13.632812 39.632812 L 8.824219 21.277344 C 8.675781 20.714844 9.003906 20.140625 9.558594 19.988281 Z M 31.714844 10.460938 C 31.65625 10.25 31.78125 10.035156 31.988281 9.980469 L 33.113281 9.675781 C 33.316406 9.621094 33.53125 9.746094 33.585938 9.957031 L 34.054688 11.746094 C 34.109375 11.953125 33.984375 12.167969 33.78125 12.226562 L 32.65625 12.527344 C 32.449219 12.585938 32.238281 12.460938 32.183594 12.25 Z M 5.125 15.304688 L 13.34375 46.679688 L 47.125 37.558594 L 38.90625 6.183594 L 5.125 15.304688 " fill-opacity="1" fill-rule="nonzero"/></g><path fill="#000000" d="M 34.882812 25.15625 L 23.863281 35.636719 C 23.214844 36.253906 22.152344 35.945312 21.921875 35.074219 L 18.25 21.050781 C 18.023438 20.179688 18.792969 19.375 19.65625 19.585938 L 34.347656 23.121094 C 35.261719 23.34375 35.566406 24.503906 34.882812 25.15625 " fill-opacity="1" fill-rule="nonzero"/></svg>