<svg xmlns="http://www.w3.org/2000/svg" xmlns:xlink="http://www.w3.org/1999/xlink" width="70" zoomAndPan="magnify" viewBox="0 0 52.5 52.499999" height="70" preserveAspectRatio="xMidYMid meet" version="1.0"><defs><clipPath id="d4826feb54"><path d="M 0 1.3125 L 52.003906 1.3125 L 52.003906 51.5625 L 0 51.5625 Z M 0 1.3125 " clip-rule="nonzero"/></clipPath></defs><g clip-path="url(#d4826feb54)"><path fill="#d8a22a" d="M 41.191406 6.871094 C 41.261719 7.128906 41.105469 7.398438 40.847656 7.464844 L 39.441406 7.84375 C 39.183594 7.914062 38.921875 7.757812 38.851562 7.496094 L 38.265625 5.277344 C 38.195312 5.019531 38.351562 4.75 38.609375 4.683594 L 40.011719 4.304688 C 40.273438 4.238281 40.535156 4.390625 40.605469 4.652344 Z M 49.453125 38.160156 C 49.519531 38.417969 49.367188 38.683594 49.109375 38.753906 L 47.703125 39.132812 C 47.445312 39.199219 47.179688 39.046875 47.113281 38.785156 L 46.527344 36.566406 C 46.457031 36.304688 46.609375 36.039062 46.867188 35.96875 L 48.273438 35.59375 C 48.53125 35.523438 48.796875 35.679688 48.867188 35.9375 Z M 44.421875 39.507812 C 44.488281 39.765625 44.335938 40.035156 44.078125 40.101562 L 42.671875 40.480469 C 42.414062 40.550781 42.148438 40.394531 42.082031 40.132812 L 41.496094 37.914062 C 41.425781 37.65625 41.578125 37.386719 41.835938 37.320312 L 43.242188 36.941406 C 43.5 36.871094 43.765625 37.027344 43.835938 37.289062 Z M 39.390625 40.855469 C 39.457031 41.117188 39.304688 41.382812 39.046875 41.453125 L 37.640625 41.828125 C 37.382812 41.898438 37.117188 41.742188 37.050781 41.484375 L 36.464844 39.261719 C 36.394531 39.003906 36.546875 38.734375 36.804688 38.667969 L 38.210938 38.289062 C 38.46875 38.222656 38.734375 38.375 38.804688 38.636719 Z M 34.359375 42.203125 C 34.425781 42.464844 34.273438 42.730469 34.015625 42.800781 L 32.609375 43.175781 C 32.351562 43.246094 32.085938 43.089844 32.019531 42.832031 L 31.433594 40.609375 C 31.363281 40.351562 31.515625 40.085938 31.777344 40.015625 L 33.179688 39.636719 C 33.4375 39.570312 33.703125 39.722656 33.773438 39.984375 Z M 29.328125 43.550781 C 29.394531 43.8125 29.242188 44.078125 28.984375 44.148438 L 27.578125 44.523438 C 27.320312 44.59375 27.054688 44.4375 26.988281 44.179688 L 26.402344 41.960938 C 26.332031 41.699219 26.488281 41.433594 26.746094 41.363281 L 28.148438 40.988281 C 28.40625 40.917969 28.671875 41.074219 28.742188 41.332031 Z M 24.296875 44.898438 C 24.367188 45.160156 24.210938 45.425781 23.953125 45.496094 L 22.546875 45.871094 C 22.289062 45.941406 22.023438 45.789062 21.957031 45.527344 L 21.371094 43.308594 C 21.300781 43.046875 21.457031 42.78125 21.714844 42.710938 L 23.117188 42.335938 C 23.378906 42.265625 23.640625 42.421875 23.710938 42.679688 Z M 19.265625 46.25 C 19.335938 46.507812 19.179688 46.773438 18.921875 46.84375 L 17.515625 47.222656 C 17.257812 47.289062 16.996094 47.136719 16.925781 46.875 L 16.339844 44.65625 C 16.269531 44.394531 16.425781 44.128906 16.683594 44.058594 L 18.089844 43.683594 C 18.347656 43.613281 18.609375 43.769531 18.679688 44.027344 Z M 14.234375 47.597656 C 14.304688 47.855469 14.148438 48.125 13.890625 48.191406 L 12.484375 48.570312 C 12.226562 48.640625 11.964844 48.484375 11.894531 48.222656 L 11.308594 46.003906 C 11.238281 45.746094 11.394531 45.476562 11.652344 45.410156 L 13.058594 45.03125 C 13.316406 44.960938 13.578125 45.117188 13.648438 45.378906 Z M 3.046875 14.714844 C 2.980469 14.457031 3.132812 14.191406 3.390625 14.121094 L 4.796875 13.742188 C 5.054688 13.675781 5.320312 13.828125 5.386719 14.089844 L 5.972656 16.308594 C 6.042969 16.570312 5.890625 16.835938 5.632812 16.90625 L 4.226562 17.28125 C 3.96875 17.351562 3.703125 17.195312 3.632812 16.9375 Z M 8.078125 13.367188 C 8.011719 13.109375 8.164062 12.839844 8.421875 12.773438 L 9.828125 12.394531 C 10.085938 12.328125 10.351562 12.480469 10.417969 12.742188 L 11.003906 14.960938 C 11.074219 15.222656 10.921875 15.488281 10.664062 15.558594 L 9.257812 15.933594 C 9 16.003906 8.734375 15.847656 8.664062 15.585938 Z M 13.109375 12.019531 C 13.042969 11.761719 13.195312 11.492188 13.453125 11.425781 L 14.859375 11.046875 C 15.117188 10.976562 15.382812 11.132812 15.449219 11.394531 L 16.035156 13.613281 C 16.105469 13.871094 15.953125 14.140625 15.695312 14.207031 L 14.289062 14.585938 C 14.03125 14.652344 13.765625 14.5 13.695312 14.238281 Z M 18.140625 10.671875 C 18.074219 10.410156 18.226562 10.144531 18.484375 10.074219 L 19.890625 9.699219 C 20.148438 9.628906 20.414062 9.785156 20.480469 10.042969 L 21.066406 12.265625 C 21.136719 12.523438 20.980469 12.789062 20.722656 12.859375 L 19.320312 13.238281 C 19.0625 13.304688 18.796875 13.152344 18.726562 12.890625 Z M 23.171875 9.324219 C 23.105469 9.0625 23.257812 8.796875 23.515625 8.726562 L 24.921875 8.351562 C 25.179688 8.28125 25.445312 8.4375 25.511719 8.695312 L 26.097656 10.914062 C 26.167969 11.175781 26.011719 11.441406 25.753906 11.511719 L 24.351562 11.890625 C 24.09375 11.957031 23.828125 11.804688 23.757812 11.542969 Z M 28.203125 7.976562 C 28.132812 7.714844 28.289062 7.449219 28.546875 7.378906 L 29.953125 7.003906 C 30.210938 6.933594 30.472656 7.085938 30.542969 7.347656 L 31.128906 9.566406 C 31.199219 9.828125 31.042969 10.09375 30.785156 10.164062 L 29.382812 10.539062 C 29.121094 10.609375 28.859375 10.453125 28.789062 10.195312 Z M 40.398438 9.105469 C 41.089844 8.917969 41.800781 9.332031 41.984375 10.03125 L 47.996094 32.800781 C 48.179688 33.496094 47.769531 34.210938 47.074219 34.398438 L 12.21875 43.738281 C 11.527344 43.925781 10.816406 43.511719 10.632812 42.8125 L 4.621094 20.042969 C 4.4375 19.347656 4.847656 18.632812 5.542969 18.445312 Z M 33.234375 6.625 C 33.164062 6.367188 33.320312 6.101562 33.578125 6.03125 L 34.984375 5.652344 C 35.242188 5.585938 35.503906 5.738281 35.574219 6 L 36.160156 8.21875 C 36.230469 8.480469 36.074219 8.746094 35.816406 8.816406 L 34.410156 9.191406 C 34.152344 9.261719 33.890625 9.105469 33.820312 8.847656 Z M 0 12.636719 L 10.273438 51.554688 L 52.5 40.238281 L 42.226562 1.320312 L 0 12.636719 " fill-opacity="1" fill-rule="nonzero"/></g><path fill="#d8a22a" d="M 37.195312 24.855469 L 23.421875 37.855469 C 22.613281 38.621094 21.28125 38.238281 20.996094 37.15625 L 16.40625 19.765625 C 16.121094 18.683594 17.085938 17.683594 18.164062 17.941406 L 36.53125 22.332031 C 37.667969 22.605469 38.050781 24.046875 37.195312 24.855469 " fill-opacity="1" fill-rule="nonzero"/></svg>