<svg xmlns="http://www.w3.org/2000/svg" xmlns:xlink="http://www.w3.org/1999/xlink" width="70" zoomAndPan="magnify" viewBox="0 0 52.5 52.499999" height="70" preserveAspectRatio="xMidYMid meet" version="1.0"><defs><clipPath id="0fc8f481c4"><path d="M 3.449219 4.589844 L 49.199219 4.589844 L 49.199219 48.089844 L 3.449219 48.089844 Z M 3.449219 4.589844 " clip-rule="nonzero"/></clipPath></defs><g clip-path="url(#0fc8f481c4)"><path fill="#000000" d="M 39.34375 9.398438 C 39.40625 9.625 39.269531 9.855469 39.046875 9.914062 L 37.820312 10.242188 C 37.597656 10.300781 37.367188 10.167969 37.304688 9.941406 L 36.796875 8.019531 C 36.734375 7.796875 36.871094 7.566406 37.09375 7.503906 L 38.320312 7.179688 C 38.542969 7.117188 38.773438 7.253906 38.835938 7.476562 Z M 46.542969 36.488281 C 46.605469 36.714844 46.46875 36.945312 46.246094 37.003906 L 45.019531 37.328125 C 44.796875 37.390625 44.566406 37.257812 44.503906 37.03125 L 43.992188 35.109375 C 43.933594 34.882812 44.066406 34.652344 44.292969 34.59375 L 45.515625 34.265625 C 45.742188 34.207031 45.972656 34.339844 46.03125 34.566406 Z M 42.160156 37.65625 C 42.21875 37.878906 42.085938 38.113281 41.859375 38.171875 L 40.636719 38.496094 C 40.410156 38.558594 40.179688 38.421875 40.121094 38.199219 L 39.609375 36.277344 C 39.550781 36.050781 39.683594 35.820312 39.910156 35.761719 L 41.132812 35.433594 C 41.359375 35.375 41.589844 35.507812 41.648438 35.734375 Z M 37.773438 38.824219 C 37.835938 39.046875 37.703125 39.277344 37.476562 39.339844 L 36.25 39.664062 C 36.027344 39.722656 35.796875 39.589844 35.734375 39.367188 L 35.226562 37.445312 C 35.164062 37.21875 35.300781 36.988281 35.523438 36.929688 L 36.75 36.601562 C 36.972656 36.542969 37.203125 36.675781 37.265625 36.902344 Z M 33.390625 39.988281 C 33.449219 40.214844 33.316406 40.445312 33.09375 40.507812 L 31.867188 40.832031 C 31.644531 40.890625 31.410156 40.757812 31.351562 40.53125 L 30.839844 38.609375 C 30.78125 38.386719 30.914062 38.15625 31.140625 38.09375 L 32.363281 37.769531 C 32.589844 37.710938 32.820312 37.84375 32.878906 38.066406 Z M 29.007812 41.15625 C 29.066406 41.382812 28.933594 41.613281 28.707031 41.671875 L 27.484375 42 C 27.257812 42.058594 27.027344 41.925781 26.96875 41.699219 L 26.457031 39.777344 C 26.398438 39.554688 26.53125 39.324219 26.757812 39.261719 L 27.980469 38.9375 C 28.207031 38.875 28.4375 39.011719 28.496094 39.234375 Z M 24.621094 42.324219 C 24.683594 42.550781 24.546875 42.78125 24.324219 42.839844 L 23.097656 43.167969 C 22.875 43.226562 22.644531 43.09375 22.582031 42.867188 L 22.074219 40.945312 C 22.011719 40.71875 22.148438 40.488281 22.371094 40.429688 L 23.597656 40.105469 C 23.820312 40.042969 24.050781 40.179688 24.113281 40.402344 Z M 20.238281 43.492188 C 20.296875 43.71875 20.164062 43.949219 19.941406 44.007812 L 18.714844 44.335938 C 18.488281 44.394531 18.257812 44.261719 18.199219 44.035156 L 17.6875 42.113281 C 17.628906 41.886719 17.761719 41.65625 17.988281 41.597656 L 19.210938 41.269531 C 19.4375 41.210938 19.667969 41.34375 19.726562 41.570312 Z M 15.855469 44.660156 C 15.914062 44.882812 15.78125 45.117188 15.554688 45.175781 L 14.332031 45.5 C 14.105469 45.5625 13.875 45.425781 13.816406 45.203125 L 13.304688 43.28125 C 13.246094 43.054688 13.378906 42.824219 13.601562 42.765625 L 14.828125 42.4375 C 15.054688 42.378906 15.285156 42.511719 15.34375 42.738281 Z M 6.105469 16.191406 C 6.046875 15.96875 6.179688 15.734375 6.40625 15.675781 L 7.628906 15.351562 C 7.855469 15.289062 8.085938 15.425781 8.144531 15.648438 L 8.65625 17.570312 C 8.714844 17.796875 8.582031 18.027344 8.355469 18.085938 L 7.132812 18.414062 C 6.90625 18.472656 6.675781 18.339844 6.617188 18.113281 Z M 10.492188 15.023438 C 10.429688 14.800781 10.566406 14.570312 10.789062 14.507812 L 12.015625 14.183594 C 12.238281 14.121094 12.46875 14.257812 12.53125 14.480469 L 13.039062 16.402344 C 13.101562 16.628906 12.964844 16.859375 12.742188 16.917969 L 11.515625 17.246094 C 11.292969 17.304688 11.0625 17.171875 11 16.945312 Z M 14.875 13.859375 C 14.816406 13.632812 14.949219 13.402344 15.171875 13.339844 L 16.398438 13.015625 C 16.625 12.957031 16.855469 13.089844 16.914062 13.316406 L 17.425781 15.238281 C 17.484375 15.460938 17.351562 15.691406 17.125 15.753906 L 15.902344 16.078125 C 15.675781 16.136719 15.445312 16.003906 15.386719 15.777344 Z M 19.257812 12.691406 C 19.199219 12.464844 19.332031 12.234375 19.558594 12.175781 L 20.78125 11.847656 C 21.007812 11.789062 21.238281 11.921875 21.296875 12.148438 L 21.808594 14.070312 C 21.867188 14.292969 21.734375 14.523438 21.511719 14.585938 L 20.285156 14.910156 C 20.058594 14.972656 19.828125 14.835938 19.769531 14.613281 Z M 23.644531 11.523438 C 23.582031 11.296875 23.71875 11.066406 23.941406 11.007812 L 25.167969 10.679688 C 25.390625 10.621094 25.621094 10.753906 25.683594 10.980469 L 26.191406 12.902344 C 26.253906 13.125 26.117188 13.359375 25.894531 13.417969 L 24.667969 13.742188 C 24.445312 13.804688 24.214844 13.667969 24.152344 13.445312 Z M 28.027344 10.355469 C 27.96875 10.128906 28.101562 9.898438 28.324219 9.839844 L 29.550781 9.511719 C 29.777344 9.453125 30.007812 9.585938 30.066406 9.8125 L 30.578125 11.734375 C 30.636719 11.960938 30.503906 12.191406 30.277344 12.25 L 29.054688 12.578125 C 28.828125 12.636719 28.597656 12.503906 28.539062 12.277344 Z M 38.652344 11.332031 C 39.257812 11.171875 39.875 11.53125 40.035156 12.136719 L 45.273438 31.847656 C 45.433594 32.453125 45.074219 33.070312 44.472656 33.230469 L 14.097656 41.320312 C 13.496094 41.480469 12.875 41.121094 12.714844 40.519531 L 7.476562 20.804688 C 7.316406 20.199219 7.675781 19.582031 8.277344 19.421875 Z M 32.410156 9.1875 C 32.351562 8.964844 32.484375 8.730469 32.710938 8.671875 L 33.933594 8.347656 C 34.160156 8.285156 34.390625 8.421875 34.449219 8.644531 L 34.960938 10.566406 C 35.019531 10.792969 34.886719 11.023438 34.664062 11.082031 L 33.4375 11.410156 C 33.210938 11.46875 32.980469 11.335938 32.921875 11.109375 Z M 3.449219 14.390625 L 12.402344 48.085938 L 49.199219 38.289062 L 40.246094 4.59375 L 3.449219 14.390625 " fill-opacity="1" fill-rule="nonzero"/></g><path fill="#000000" d="M 35.863281 24.96875 L 23.863281 36.226562 C 23.15625 36.890625 21.996094 36.558594 21.746094 35.621094 L 17.746094 20.5625 C 17.496094 19.625 18.335938 18.761719 19.28125 18.984375 L 35.28125 22.785156 C 36.277344 23.023438 36.609375 24.269531 35.863281 24.96875 " fill-opacity="1" fill-rule="nonzero"/></svg>